<svg xmlns="http://www.w3.org/2000/svg" viewBox="0 0 252.282 252.282" height="336.376" width="336.376" xmlns:v="https://vecta.io/nano"><path d="M119.633 214.355h2.813v-6.141h5.621v6.141h2.809v-14.012h-2.809v5.664h-5.621v-5.664h-2.812zm74.844-29.555h8.313v-2.211h-5.504v-3.934h5v-2.207h-5v-3.453h5.461v-2.207h-8.27zm-140.992 0h8.25v-2.211h-5.437v-11.801h-2.812zM176.86 31.871l2.273 1.438 6.16-9.738.055-.012-2.992 11.789 2.273 1.438L194 29.031l.035.023-6.184 9.77 2.273 1.441 7.492-11.844-3.801-2.402-8.492 7.191-.035-.02 2.863-10.758-3.801-2.402zm-12.176-5.363l3.188 1.324 9.738-11.125-2.578-1.07-7.504 8.793-.039-.016.906-11.539-2.781-1.156zM146.7 21.199l2.727.684 1.414-5.648.879.219c1.148.289 1.402.766 1.535 1.875l.574 4.656 3.035.762-.848-5.863c-.121-.672-.363-1.52-1.09-1.762l.012-.039c1.789.199 3.191-.855 3.594-2.453.945-3.777-2.562-4.555-5.484-5.285l-2.941-.738zm5.598-10.77l.895.227c1.363.34 2.848.859 2.438 2.492-.426 1.695-2.012 1.504-3.355 1.168l-.895-.223zm-21.184 1.848c.234-2.457 1.613-4.867 4.391-4.602s3.676 2.891 3.441 5.348c-.238 2.516-1.539 4.957-4.398 4.684s-3.672-2.91-3.434-5.43M128.196 12c-.406 4.277 1.668 7.48 6.145 7.906 4.418.418 7.125-2.387 7.523-6.605s-1.773-7.406-6.152-7.824c-4.434-.422-7.109 2.246-7.516 6.523m-9.023 7.574l2.805-.125-.617-13.996-2.809.125zm-16.305-9.809l1.547-.246c2.32-.371 4.836.996 5.316 4.012s-1.488 5.094-3.809 5.465l-1.543.246zm-.918 12.098l3.785-.602c4.246-.676 7.762-2.699 6.887-8.191s-4.848-6.324-9.09-5.648l-3.785.605zm-12.668 3.984l3.277-1.086.066-14.785-2.648.879.09 11.559-.039.016-6.871-9.312-2.859.945zm-13.867 6.273l2.508-1.266-5.316-10.539 3.586-1.809-.996-1.973-9.68 4.883.996 1.973 3.586-1.809zm-15.57-6.66c-1.039.297-2.055.797-3.051 1.477-2.039 1.395-3.395 3.711-1.629 6.297 2.621 3.824 7.066-.555 8.574 1.648.715 1.043-.156 2.297-1.035 2.898-.91.621-2.016.965-3.102 1.078l1.211 2.234c1.336-.5 2.012-.723 3.27-1.582 2.336-1.598 3.684-3.934 1.949-6.465-2.652-3.879-7.141.438-8.516-1.566-.859-1.262-.07-2.312.723-2.855.813-.555 1.75-.93 2.695-1.113zm114.832 196.094l-2.68 1.129.117 3.438-5.234 2.207-2.355-2.492-2.867 1.211 10.512 10.773 2.922-1.234zm-6.215 8.504l3.77-1.59.379 6.113-.035.016zm20.266-17.078l-2.285 1.418 5.527 8.902-.035.023-10.078-6.074-2.918 1.809 7.391 11.906 2.285-1.422-5.527-8.902.035-.019 10.063 6.086 2.934-1.82zm14.484-12.461l-2.176 1.934 1.219 3.215-4.242 3.777-3.035-1.602-2.324 2.07 13.422 6.813 2.367-2.109zm-3.148 10.055l3.063-2.723 2.328 5.668-.031.027zm8.762-16.816L207 195.894l8.977 7.664-2.605 3.055 1.676 1.434 7.039-8.246-1.68-1.434-2.605 3.055zm6.77-9.242l-1.598 2.309 11.516 7.98 1.602-2.312zm6.445-11.164l-3.992 7.223 1.934 1.066 2.629-4.762 10.332 5.707 1.359-2.461zm7.074-17.816l-1.004 2.73 2.59 2.258-1.965 5.332-3.43.019-1.078 2.918 15.051-.312 1.098-2.977zm1.965 10.352l1.414-3.844 4.723 3.902-.012.035zm.938-24.371l-.57 2.75 5.703 1.176-.184.887c-.238 1.16-.703 1.434-1.809 1.613l-4.625.77-.633 3.066 5.82-1.094c.668-.152 1.504-.43 1.715-1.164l.039.008c-.125 1.797.988 3.156 2.602 3.488 3.812.785 4.441-2.754 5.051-5.703l.613-2.965zm10.992 5.137l-.187.902c-.285 1.379-.738 2.883-2.391 2.543-1.711-.355-1.586-1.949-1.305-3.305l.184-.902zm-9.816-24.066l-.129 2.91 3.156 1.363-.25 5.676-3.262 1.062-.141 3.109 14.242-4.879.141-3.168zm5.016 9.266l.18-4.09 5.688 2.281-.004.039zm-2.934-13.551c-.41-.617-.797-1.887-.922-2.984-.336-2.973 1.602-4.969 4.434-5.289 2.852-.32 5.25 1.227 5.574 4.098.109.996.078 1.969-.398 3.094l2.375-.066c.285-1.062.328-2.297.223-3.215-.535-4.727-3.535-7.34-8.301-6.801-4.711.531-6.609 3.918-6.102 8.426.121 1.059.445 2.133.801 3.125zM7.446 104.953c-.492.961-.816 2.051-.992 3.242-.367 2.441.406 5.012 3.504 5.477 4.586.687 4.402-5.551 7.043-5.156 1.25.184 1.574 1.676 1.418 2.727-.164 1.094-.664 2.133-1.324 3.012l2.465.633c.543-1.32.84-1.969 1.066-3.477.418-2.797-.375-5.371-3.41-5.828-4.645-.695-4.543 5.531-6.945 5.172-1.508-.223-1.742-1.516-1.598-2.469.145-.973.508-1.914 1.016-2.73zm11.875 28.875l.012-2.91-3.207-1.238.023-5.68 3.219-1.191.012-3.109-14.035 5.441-.012 3.168zm-5.383-9.055l-.016 4.094-5.773-2.051v-.039zm6.637 17.742l-.363-2.785-11.703 1.523-.52-3.98-2.191.285 1.402 10.75 2.191-.285-.52-3.98zm2.379 11.242l-.672-2.73-13.609 3.34.672 2.73zm-11.172 10.551c.02 1.078.246 2.191.645 3.328.828 2.324 2.719 4.234 5.668 3.188 4.371-1.551 1.277-6.969 3.797-7.863 1.191-.422 2.176.742 2.531 1.742.371 1.043.418 2.195.246 3.281l2.473-.602c-.141-1.418-.18-2.129-.687-3.566-.945-2.668-2.855-4.57-5.75-3.543-4.43 1.566-1.41 7.016-3.699 7.828-1.441.508-2.254-.523-2.574-1.434a7.29 7.29 0 0 1-.387-2.887zm22.594 16.797l-1.297-2.492-5.164 2.684-.418-.801c-.543-1.051-.355-1.559.387-2.395l3.105-3.516-1.445-2.777-3.824 4.523c-.422.535-.895 1.277-.598 1.984l-.035.016c-1.039-1.473-2.758-1.82-4.219-1.062-3.457 1.793-1.711 4.937-.324 7.609l1.398 2.687zm-11.77 2.949l-.426-.82c-.648-1.246-1.246-2.699.254-3.477 1.547-.805 2.457.508 3.098 1.738l.426.82zm19.848 8.648l-4.816-6.77-1.801 1.277 3.191 4.484-3.207 2.281-2.898-4.074-1.801 1.281 2.898 4.07-2.812 2.004-3.164-4.449-1.801 1.281 4.797 6.738zm8.938 9.762l-2.402-2.48-13.348 6.355 1.941 2.008 10.375-5.102.027.031-5.406 10.234 2.094 2.16zm9.281 8.121l-2.164-1.793-8.922 10.809 2.168 1.789zm14.652 9.703l-2.289-1.418-5.523 8.902-.035-.023.973-11.727-2.914-1.812-7.391 11.902 2.281 1.422 5.527-8.902.035.019L65 230.371l2.934 1.82zm11.973 5.355l-3.18-1.344-9.793 11.078 2.574 1.082 7.547-8.754.035.016-.961 11.531 2.773 1.172zm86.293-52.633c-.824.246-1.91-1.672-2.84-3.996-.887-2.223-1.527-4.516-1.527-4.516l-2.367-9.883 3.414-4.633 2.969 9.961c.813 2.195 3.938 11.988.352 13.066m-7.023-5.168c.68 2.203 2.621 7.383 4.516 8.449 1.082.613 2.504 1.156 3.758 1.176a.15.15 0 0 1 .152.176c-.535 3.91-1.73 7.293-3.973 10.566l-.168.063-6.195-1.773-.215-.066-.18-.105-.465-.066-2.016-.316-3.184-.508-.125-.176 4.43-29.348c.027-.199.246-.211.297-.019zm-7.969-12.062c-.629 1.492-2.383 7.426-4.281 29.504l-2.531.367-.168-.145a189.47 189.47 0 0 1-.363-6.84c-.125-3.703-.125-7.812.375-9.445s2.113-5.258 3.691-8.402c.789-1.57 1.57-3.02 2.203-4.035.316-.512.594-.91.816-1.164.137-.156.336-.031.258.16m12.242-12.137c-.059-.125-.176-.137-.262-.023l-4.812 6.535-1.352-6.73c-.031-.156-.168-.191-.27-.066 0 0-3.539 4.355-7.203 9.789-3.656 5.422-7.469 11.957-7.973 16.309-.504 4.32-.348 9.039-.062 12.676s.688 6.191.84 6.32c0 0 6.719 0 9.352.375 1.301.188 4.383 1.102 7.152 1.977s5.203 1.699 5.379 1.633c1.973-3.219 6.07-10.477 6.59-13.945.633-4.211.836-17.879-7.379-34.848m-43.668-95.254c1.367-.195 1.648.293 1.945.547.461.387-.273.547-.93.699s-1.168.066-1.168.066-.156-1.266.152-1.312m9.816 17.668c-.27-.094-1.047-.137-1.305-.152-1.758-.121-6.227-.23-7.656-1.008-.277-.152-.496-.363-.516-.645-.023-1.812-.617-3.828-2.336-5.754-.047-.047-.16-.086-.426.148-1.004.891-1.555 3.008-1.062 4.234.824 2.063.121 3.527-1.863 4.027-.285.074-.5.098-.57.105l-3.832 1.406c.07.793.508 5.398 1.215 5.754.363.18 7.965-5.492 8.105-6.051l.297-.121c.5.059 1.031.254 1.512.402l6.875 2.211c.469.137.984.324 1.477.371 1.23-.82.605-2.941.273-4.094l-.148-.543c-.023-.105-.035-.203-.039-.293m-12.91-19.598c-.062.383-.156 1.023-.234 1.734-.023.219 1.102.031 1.703.344.543.285.156 2.117.102 2.613-.059.52.836.266.789.496-.012.063-.098 2.449.199 2.844.559.297 2.625-.918 3.09-1.742 1.266-2.242.023-5.609-.531-6.477-.387-.605-3.488-.465-4.387-.437l-.727.004zm-2.344.363c.793-1.789 1.539-3.211 1.66-3.437.191-1.52 2.535-1.734 3.551-1.734 1.703 0 3.105.828 3.863 2.301.133.262.188.438.188.438l.891 2.84c.133.422.684 2.289 1.008 2.961l.105.277.234.695c.535 1.609 1.727 5.066 2.969 5.949 6.445 4.57 7.328 18.168 7.328 18.734 0 .598-2.359 20.742-4.121 28.41-.43 1.879-1.246 6.492.73 8.215.117.105.215.168.285.207.289.121.262.328.063.348l-6.285.582c-.133.012-.203-.082-.156-.207 0 0 .398-1.066.832-2.633s.902-3.645 1.047-5.668c.188-2.625 1.047-6.926 1.383-11.688.34-4.75.16-9.945-1.715-14.371 1.152-3.082 1.453-4.738 1.516-5.172l-4.102-1.465c-2.219-.777-4.617-1.578-5.422-1.723-1.18-.211-4.555 3.816-5.578 4.91-.598.641-1.121 1.164-1.477 1.359-.625.348 0 1.863.172 2.355.266.758.887 2.297.141 2.977-1.977 1.797-1.461 3.977-.805 6.172.27.906.609 1.898.965 2.996 1.418 4.406 3.086 10.547 1.586 19.711.305.551 5.293 1.109 5.457.508 1.801-6.52 1.91-10.387 2.117-12.805.207-2.449.531-3.5 2.816-4.254l.191.098c.121.363.012 2.055-.262 5.031l-1.316 13.02c2.035.617 1.484 1.453.219 2.191-1.25.734-3.34 1.543-4.727 2.414l-.223-.066c-.379-.801-1.801-1.477-3.574-2.105-1.754-.621-3.77-1.172-5.215-1.742-1.562-.621-2.629-4.523-1.453-8.879.82-3.043-1.559-18.68-2.16-22.773-.195-1.32-.477-2.168-.777-2.828-.309-.676-.633-1.168-.91-1.766-.566-1.238-.906-2.898-.469-7.305.438-4.43 2.199-7.805 3.895-10.508l2.324-3.594c.648-1.062 1.094-1.984 1.199-2.832.223-1.789 1.148-4.195 2.012-6.145m58.106 147.48l-.73 6.887c.59.027 4.004.102 4.195-.766.324-1.461.633-7.125-.922-7.902-1.246-.621-2.172.82-2.543 1.781m-14.863 4.785c-.066-.055-.172-.242.039-.301l.863-.223c2.066-.555 5.559-1.684 6.875-3.266 1.887-2.266 3.953-4.254 5.988-5.309 2.285-1.184 5.074-1.805 7.145 1.691 1.449 2.441 1.008 6.477.516 9.227l-.172.922a3.93 3.93 0 0 0-.07.426c0 2.609-10.43 1.801-10.43.254l1.297-6.582c-1.309 1.113-4.668 3.91-6.039 4.301-2.156.617-4.391.605-5.98-1.07zm-62.184-13.582l-.168.145-2.395-.227-.141-.141c-1.898-22.078-3.648-28.012-4.277-29.504-.082-.191.121-.316.258-.16.223.254.5.652.816 1.164.629 1.016 1.41 2.465 2.199 4.035 1.582 3.145 3.191 6.773 3.695 8.402.938 3.063.117 14.82.012 16.285m-11.285-29.594l4.43 29.352-.125.172-3.184.512-2.016.312-.445.059-.199.113-.215.066c-2.055.625-4.129 1.195-6.195 1.77l-.168-.059c-2.242-3.273-3.437-6.66-3.973-10.566-.012-.098.055-.176.148-.176.477-.008 1.898-.125 3.762-1.176 1.91-1.074 3.855-6.32 4.516-8.449l3.363-11.949c.055-.191.27-.18.301.019m-3.953-1.297l-2.367 9.883c-.043.16-2.578 9.047-4.367 8.508-3.98-1.191.301-12.926.352-13.062l2.969-9.961zm17.887 14.84c-.508-4.352-4.316-10.887-7.973-16.309-3.664-5.434-7.203-9.789-7.203-9.789-.102-.125-.238-.09-.27.066l-1.355 6.73-4.812-6.535c-.082-.113-.199-.102-.262.023-8.211 16.969-8.008 30.637-7.379 34.848.32 2.121 1.977 5.617 3.535 8.563 1.566 2.953 3.055 5.383 3.234 5.449l5.203-1.699c2.77-.875 5.852-1.789 7.152-1.977 2.629-.375 9.348-.375 9.5-.504 0 0 1.637-10.227.629-18.867m-31.125 24.848c-.09-.234-1.023-2.539-2.543-1.781-1.551.777-1.246 6.441-.922 7.902.191.863 3.43.797 4.199.766zm14.863 4.785c-1.621 1.746-3.855 1.758-6.012 1.141-1.371-.391-4.73-3.188-6.039-4.301l1.293 6.551c-.371 1.219-4.422 1.418-4.824 1.437-4.66.25-5.602-.984-5.602-1.66 0-.043-.023-.184-.066-.426l-.172-.922c-.496-2.746-.937-6.785.512-9.227 2.07-3.496 4.859-2.875 7.145-1.691 2.035 1.055 4.102 3.043 5.988 5.309 1.32 1.582 4.809 2.711 6.875 3.266l.688.18c.387.102.281.289.215.344m55.492 31.512l-2.785.551 2.664 13.949 2.844-.578zm-37.184.121l-2.422 13.98 2.711.398.176-.125 2.23-13.793zM27.41 86.937l-13.219-4.75-.195.086-1.012 2.547.09.203 13.227 4.691.195-.09L27.5 87.14l-.09-.203m17.57-29.574l-10.68-9.109-.219.023-1.699 2.148.023.215 10.723 9.07.219-.023L45 57.574l-.02-.211m175.281-6.531l.023-.211-1.699-2.152-.219-.02-10.68 9.109-.019.211 1.652 2.113.219.023zm19.422 34.184l-1.012-2.547-.195-.09-13.219 4.754-.09.203 1.004 2.484.195.086 13.227-4.687.09-.203m-79.902 159.941c-.105-.039-.391-.156-.789-.367-3.211-1.715-5.348-4.941-6.313-8.41-1.617-6.543.707-9.781 1.113-10.285 42.383-11.738 74.156-49.855 75.77-96.141.359-10.215-.777-20.133-3.211-29.551.238-.617 1.969-4.48 8.441-6.352 3.535-.91 6.313-.461 8.203.211.949.336 2.063.871 2.855 1.527 16.188 63.566-20.465 130.863-86.07 149.367m85.207-153.371a12.86 12.86 0 0 0-.453-.277c-3.254-1.883-7.246-2.121-10.855-1.191-5.801 1.676-7.91 4.945-8.512 6.172-1.105-4.531-2.43-7.945-4.18-12.246l.383.098c3.207.695 7.027-.586 9.801-2.004 3.051-1.676 6.016-4.328 7.168-7.715l.113-.367c2.383 5.707 4.77 11.469 6.535 17.531m-8.562-21.035c-.227 2.824-1.84 5.387-3.973 7.207-.156.137-.336-.019-.23-.195a4.96 4.96 0 0 0 .063-5.074c-.297-.52-.613-.949-1.125-1.312-.141-.098-.105-.25.066-.277.598-.086 1.195-.289 1.75-.609 1.09-.629 1.863-1.609 2.234-2.715.055-.168.215-.172.285-.012l.934 2.207c.012.047.031.316-.004.781m-4.699-2.426c-1.176.68-2.68.277-3.359-.902a2.46 2.46 0 0 1 .898-3.359c1.18-.68 2.684-.277 3.363.898a2.46 2.46 0 0 1-.902 3.363m-.25-7c-1.141-.223-2.375-.051-3.457.574-.547.316-.93.723-1.395 1.238-.105.121-.238.082-.266-.074-.395-2.41-2.516-4.223-5.031-4.156-.207.004-.25-.227-.055-.297 2.645-.937 5.672-1.059 8.238.16.418.199.641.355.641.355l.035.031 1.441 1.93c.105.141.019.273-.152.238m-4.012-6.105c-1.324-.336-5.375-.934-10.641 2.266-5.266 3.406-6.484 6.797-6.746 7.863-2.848-3.66-5.141-6.516-8.516-9.742 1.363.09 5.25-.098 9.605-4.285 4.344-4.437 4.461-9.098 4.379-10.531 4.32 4.516 8.129 9.469 11.918 14.43m-14.574-15.996c-.258 3.344-2.395 6.578-4.66 8.887-4.859 4.672-9.098 4.258-9.75 4.16-40.117-39.156-104.363-39.289-144.641.027-.652.105-4.805.668-9.66-4.004-2.555-2.609-3.668-5.18-4.145-7.09-.234-.953-.41-2.113-.32-3.105 48.262-47.254 125.367-46.953 173.191.422.008.102.016.344-.016.703M37.106 40.93c0 3.758 1.789 7.336 4.395 9.996 4.352 4.188 8.242 4.379 9.602 4.289-3.371 3.223-5.664 6.078-8.512 9.738l-.109-.379c-1-3.125-4.02-5.793-6.633-7.484-2.977-1.805-6.758-3.051-10.266-2.352l-.379.086c3.789-4.961 7.598-9.914 11.918-14.426-.008.145-.016.32-.016.531M22.852 58.433c2.563-1.219 5.586-1.098 8.23-.164.195.066.148.301-.055.297a4.97 4.97 0 0 0-4.426 2.484c-.301.52-.516 1.004-.574 1.633-.016.172-.164.215-.27.082-.379-.477-.852-.891-1.41-1.215a4.96 4.96 0 0 0-3.465-.574.14.14 0 0 1-.152-.242l1.445-1.914c.035-.035.258-.187.676-.387m.25 5.281c1.176.68 1.578 2.184.898 3.363a2.46 2.46 0 0 1-3.359.898c-1.18-.68-1.582-2.184-.902-3.359a2.46 2.46 0 0 1 3.363-.902m-3.711 6.426c.547.316 1.09.441 1.773.586.152.035.188.168.063.27-1.887 1.547-2.398 4.293-1.082 6.434.109.176-.074.332-.23.195-2.133-1.816-3.75-4.383-3.977-7.211-.039-.465-.016-.734-.016-.734l.012-.047.949-2.211c.07-.16.23-.156.285.012.371 1.098 1.141 2.082 2.223 2.707m-5.176 3.719c.371 1.313 1.879 5.117 7.281 8.082 5.586 2.855 9.133 2.215 10.184 1.91-1.746 4.301-3.074 7.711-4.176 12.242-.605-1.227-2.715-4.496-8.516-6.172-6.016-1.547-10.109.684-11.309 1.473 1.766-6.066 4.156-11.828 6.535-17.535M7.133 95.027c3.129-1.91 7.012-2.16 10.527-1.254 6.469 1.867 8.09 5.813 8.324 6.437-1.898 7.156-3 14.625-3.27 22.316-1.711 49 30.813 91.195 76.184 103.473.398.496 2.578 3.512.965 10.051-.984 3.52-2.727 5.797-4.223 7.199-.762.715-1.719 1.453-2.684 1.895C39.227 230.211.668 180.019 2.699 121.828c.32-9.113 1.48-17.816 3.707-26.305a7.64 7.64 0 0 1 .727-.496m89.59 150.984c3.492-1.754 5.898-5.363 6.93-9.059 1.449-5.859-.328-9.324-1.09-10.457 4.477 1.305 8.094 1.867 12.691 2.5l-.273.285c-2.207 2.43-3.004 6.383-3.164 9.488-.074 3.48.738 7.379 3.098 10.066l.262.285c-6.133-.793-12.316-1.609-18.453-3.109m18.168-3.609c-.039-.203.184-.285.285-.102a4.97 4.97 0 0 0 4.363 2.59c.598 0 1.129-.059 1.699-.32a.14.14 0 0 1 .207.195 4.89 4.89 0 0 0-.348 1.824 4.97 4.97 0 0 0 1.234 3.289c.117.133.043.273-.133.254l-2.379-.297c-.047-.012-.289-.129-.676-.391-2.332-1.609-3.742-4.293-4.254-7.043m4.648-4.934a2.46 2.46 0 1 1 0 4.922 2.46 2.46 0 1 1 0-4.922m1.559-3.93c0 .535.047 1.02.195 1.492.051.145-.047.238-.191.191-.492-.16-1.016-.25-1.562-.25a4.96 4.96 0 0 0-4.473 2.816c-.09.184-.32.113-.289-.09.422-2.953 1.797-5.863 4.152-7.734.391-.309.641-.449.641-.449l3.836-.523c.195-.027.27.18.098.285a4.94 4.94 0 0 0-2.406 4.262m2.5 0a2.46 2.46 0 1 1 4.922 0 2.46 2.46 0 1 1-4.922 0m4.035 6.391a5.02 5.02 0 0 0 .34 1.855c.059.156-.043.262-.199.203-.551-.211-1.105-.359-1.715-.359-.598 0-1.176.117-1.711.312a.14.14 0 0 1-.195-.203 4.87 4.87 0 0 0 .348-1.809 4.83 4.83 0 0 0-.258-1.547c-.047-.152.051-.246.195-.195.52.18 1.055.309 1.621.309.574 0 1.105-.066 1.609-.242.145-.051.242.043.195.191-.152.477-.23.961-.23 1.484m-4.035 6.66a2.46 2.46 0 0 1 2.461-2.461c1.359 0 2.457 1.102 2.457 2.461s-1.098 2.461-2.457 2.461a2.46 2.46 0 0 1-2.461-2.461m4.969-17.316c-.176-.102-.105-.309.098-.285l3.836.508c.051.019.301.156.688.457.379.297.895.754 1.437 1.395 1.082 1.285 2.27 3.305 2.699 6.25.027.199-.195.273-.289.09-.824-1.594-2.523-2.715-4.445-2.715a4.9 4.9 0 0 0-1.676.301c-.148.051-.246-.043-.199-.191.156-.492.301-1.023.301-1.543 0-1.832-.977-3.406-2.449-4.266m4.023 13.117a2.46 2.46 0 1 1 0-4.922 2.46 2.46 0 1 1 0 4.922m-2.805 7.477c.762-.871 1.23-2.027 1.23-3.277 0-.633-.16-1.168-.379-1.828a.14.14 0 0 1 .203-.191 4.9 4.9 0 0 0 1.75.32c1.887 0 3.523-1.051 4.363-2.598.098-.184.32-.102.285.102-.512 2.754-1.922 5.438-4.258 7.051-.383.262-.629.379-.629.379l-.047.012-2.387.285c-.176.019-.25-.121-.133-.254M34.403 70.238a2.46 2.46 0 0 1-2.461 4.266c-1.176-.68-1.578-2.184-.898-3.363s2.184-1.578 3.359-.902m-5.641-7.937a2.46 2.46 0 0 1 3.363-.898c1.18.68 1.582 2.184.902 3.359a2.46 2.46 0 0 1-3.363.902c-1.176-.68-1.578-2.184-.902-3.363m-3.766 7.332c.977-.801 1.535-1.687 1.754-2.941.031-.16.168-.199.27-.07a4.9 4.9 0 0 0 2.867 1.758c.152.031.188.164.066.266-.836.723-1.457 1.668-1.672 2.762-.027.152-.156.191-.262.074-.336-.367-.715-.68-1.172-.941-.562-.324-1.172-.547-1.773-.633-.168-.027-.207-.168-.078-.273m-.906 10.172a4.99 4.99 0 0 0 5.152-4.094c.027-.156.16-.191.266-.078.344.383.738.773 1.188 1.035 1.582.914 3.434.855 4.918.008.172-.102.316.066.195.227l-2.355 3.066c-.043.039-.285.188-.738.371a9.67 9.67 0 0 1-1.93.543c-1.652.301-3.996.316-6.758-.781-.191-.078-.145-.309.063-.297m-.949-2.84c-1.18-.68-1.582-2.184-.902-3.359a2.46 2.46 0 0 1 3.363-.902c1.176.68 1.578 2.184.898 3.363a2.46 2.46 0 0 1-3.359.898m11.848-16.234c-.117-.172.059-.336.219-.207 2.348 1.84 4.18 4.484 4.625 7.465.07.492.07.777.07.777l-1.465 3.582c-.078.188-.293.145-.297-.055-.023-1.691-.918-3.309-2.488-4.215-.465-.27-.906-.473-1.391-.578-.152-.031-.184-.16-.07-.262.387-.344.727-.754.996-1.227.988-1.707.844-3.758-.199-5.281m191.785 68.926c-1.941 55.578-48.57 99.063-104.148 97.121s-99.062-48.57-97.121-104.152 48.57-99.059 104.152-97.117 99.059 48.57 97.117 104.148m1.664-49.449c-2.766 1.109-5.973 1.375-8.773.27-.461-.184-.711-.328-.711-.328l-2.367-3.059c-.125-.16.019-.324.195-.227a4.95 4.95 0 0 0 4.895-.051c.465-.27.859-.547 1.191-.918a.14.14 0 0 1 .266.074 4.98 4.98 0 0 0 .563 1.477c.984 1.707 2.832 2.605 4.676 2.465.207-.016.258.219.066.297m1.684-6.473c.68 1.18.277 2.684-.898 3.363a2.46 2.46 0 1 1-2.465-4.262c1.18-.68 2.684-.277 3.363.898m-6.176-5.777c.563-.324 1.059-.742 1.438-1.223.102-.129.242-.09.27.074.207 1.246.699 2.172 1.672 2.988.129.105.09.246-.074.27a4.87 4.87 0 0 0-2.953 1.602c-.105.117-.234.082-.266-.074-.207-1.086-.711-2.094-1.555-2.828-.117-.102-.086-.23.066-.266a4.83 4.83 0 0 0 1.402-.543m-3.711-6.426a2.46 2.46 0 0 1 2.461 4.262 2.46 2.46 0 0 1-2.461-4.262m1.094 9.758c.676 1.176.273 2.68-.902 3.359s-2.684.277-3.363-.898-.273-2.684.902-3.363a2.46 2.46 0 0 1 3.363.902m-3.059-3.844c.121.102.086.234-.066.266-.504.109-1.039.254-1.488.516-1.582.91-2.461 2.547-2.465 4.25-.004.203-.219.246-.297.059l-1.48-3.574c-.012-.055-.016-.34.055-.824a9.68 9.68 0 0 1 .488-1.941c.57-1.582 1.727-3.617 4.063-5.461.16-.129.332.031.223.203-1.375 2.137-.918 4.914.969 6.508m-81.113 181.676c.949-.98 3.492-4.188 3.359-10.352-.32-6.262-2.648-9.012-3.441-9.773 4.602-.633 8.219-1.191 12.691-2.5-.758 1.133-2.535 4.598-1.09 10.457 1.672 5.984 5.652 8.414 6.934 9.059-6.137 1.5-12.32 2.316-18.453 3.109M130.543.078C60.918-2.351 2.508 52.113.078 121.738s52.035 128.035 121.66 130.465 128.031-52.035 130.465-121.66S200.164 2.508 130.543.078m-39.32 125.715a2.1 2.1 0 0 1 3.742 1.906 2.1 2.1 0 0 1-2.824.918c-1.035-.523-1.445-1.789-.918-2.824m-38.02 0a2.1 2.1 0 0 1 2.824-.914c1.035.523 1.445 1.789.918 2.82s-1.789 1.445-2.824.918-1.441-1.789-.918-2.824m73.094-85.355c1.355-.086 3.008.094 4.156 1.215l3.602-4.437-2.809-.512-.543 1.758-2.508.109c-.449 0 .207-1.434.406-2.133l-1.703-1.445-1.715 1.715c1.117 2.418 1.453 1.887-1.07 2.297l-.156-.074-1.234-2.195-2.566 1.414 3.672 2.75c.277-.086 1.273-.379 2.469-.461m-9.363 5.164c.809 0 1.461.656 1.461 1.465a1.46 1.46 0 0 1-2.922 0c0-.809.652-1.465 1.461-1.465m-1.891-5.121a1.46 1.46 0 1 1 0 2.922 1.46 1.46 0 1 1 0-2.922m1.02-4.687c.805 0 1.461.656 1.461 1.461a1.46 1.46 0 1 1-2.922 0 1.46 1.46 0 0 1 1.461-1.461m3.957-3.523c.809 0 1.465.656 1.465 1.461s-.656 1.461-1.465 1.461a1.46 1.46 0 0 1-1.461-1.461c0-.805.656-1.461 1.461-1.461m6.031-1.781a1.46 1.46 0 1 1 0 2.922 1.46 1.46 0 0 1-1.461-1.461c0-.805.656-1.461 1.461-1.461m5.453.547a1.46 1.46 0 0 1 1.461 1.461c0 .805-.656 1.461-1.461 1.461a1.46 1.46 0 0 1 0-2.922m5.449 2.324a1.46 1.46 0 0 1 1.461 1.461c0 .805-.656 1.461-1.461 1.461a1.46 1.46 0 1 1 0-2.922m1.926 4.977a1.46 1.46 0 1 1 0 2.922 1.46 1.46 0 0 1 0-2.922m-1.852 4.977c.805 0 1.461.656 1.461 1.461a1.46 1.46 0 1 1-2.922 0 1.46 1.46 0 0 1 1.461-1.461m-10.832 76.543l13.719-3.391c.117-.027.199.043.191.164-.004.047-.613 7.219-12.035 8.891-6.164.898-9.727-3.652-11.359-8.715-.355-1.098-.492-1.844-.492-1.844-.027-.156.082-.234.223-.164zm57.484-48.609c2.703.387 5.125-2.445 5.137-2.461.082-.098.195-.086.254.031.004.008 1.613 3.293 4.344 4.105 2.723.813 5.613-1.176 5.617-1.18.168-.117.332.055.211.219l-3.418 4.582-.203.043s-1.406-.82-4.145-1.641c-2.75-.824-6.836-1.648-12.187-1.648s-9.437.824-12.184 1.648c-2.738.82-4.148 1.641-4.148 1.641l-.199-.043-3.418-4.582c-.125-.164.039-.336.211-.219.004.004 2.895 1.992 5.617 1.18s4.34-4.098 4.344-4.105c.055-.117.168-.129.254-.031.012.016 2.43 2.848 5.137 2.461 2.723-.391 4.289-3.125 4.293-3.129l.266.004c0 .004 1.496 2.734 4.219 3.125m-4.203-10.551c.973 0 1.758.785 1.758 1.754s-.785 1.758-1.758 1.758a1.76 1.76 0 0 1-1.758-1.758c0-.969.789-1.754 1.758-1.754m2.066 3.301c.973 0 1.758.785 1.758 1.754s-.785 1.758-1.758 1.758a1.76 1.76 0 0 1-1.758-1.758c0-.969.789-1.754 1.758-1.754m-4.371 0c.973 0 1.758.785 1.758 1.754s-.785 1.758-1.758 1.758-1.754-.785-1.754-1.758.785-1.754 1.754-1.754m12.461-.32c.953.172 1.594 1.082 1.426 2.035a1.76 1.76 0 0 1-2.035 1.426 1.76 1.76 0 0 1-1.426-2.035 1.76 1.76 0 0 1 2.035-1.426m-20.828 0a1.76 1.76 0 0 1 2.035 1.426 1.76 1.76 0 0 1-1.426 2.035 1.76 1.76 0 0 1-2.035-1.426c-.168-.953.473-1.863 1.426-2.035m-12.422 2.125c.863-.441 1.922-.098 2.363.77a1.75 1.75 0 0 1-3.129 1.594c-.441-.867-.098-1.922.766-2.363m-.344 3.879c.867-.441 1.926-.098 2.363.766s.098 1.922-.766 2.363a1.76 1.76 0 0 1-2.363-.766 1.76 1.76 0 0 1 .766-2.363m3.895-1.984c.867-.441 1.926-.098 2.363.766s.098 1.926-.766 2.363a1.76 1.76 0 0 1-2.363-.766 1.76 1.76 0 0 1 .766-2.363m42.543-1.895c.863.441 1.207 1.496.766 2.363a1.75 1.75 0 0 1-2.359.766c-.867-.437-1.207-1.496-.77-2.359s1.5-1.211 2.363-.77m-3.551 1.895c.863.441 1.207 1.5.77 2.363a1.76 1.76 0 0 1-2.363.766c-.867-.437-1.211-1.496-.77-2.363a1.76 1.76 0 0 1 2.363-.766m13.176 38.832c-.016-.289.547-.402.836-.156 1.211 4.012 1.066 8.188-2.5 11.754-4.129 4.133-7.746 3.707-11.68 2.547-.32-.336-.207-.898.082-.883 6.027.32 13.586-7.238 13.262-13.262m-15.898 11.344a2.1 2.1 0 1 1 3.996-1.297 2.1 2.1 0 1 1-3.996 1.297m11.48-11.48a2.1 2.1 0 1 1 3.996-1.297 2.1 2.1 0 1 1-3.996 1.297m-10.98 15.633c-.016-.289.543-.402.832-.156 1.211 4.012 1.07 8.188-2.496 11.754-4.133 4.133-7.75 3.707-11.684 2.547-.316-.34-.203-.898.086-.883 6.023.32 13.582-7.238 13.262-13.262m-15.898 11.25c-.359-1.102.242-2.289 1.348-2.645s2.285.242 2.645 1.348a2.1 2.1 0 0 1-1.348 2.645 2.1 2.1 0 0 1-2.645-1.348m11.48-11.48c-.359-1.105.246-2.289 1.348-2.648a2.1 2.1 0 0 1 2.645 1.352c.359 1.102-.242 2.285-1.348 2.645a2.1 2.1 0 0 1-2.645-1.348m-45.254-15.266c-.324 6.023 7.238 13.582 13.262 13.262.289-.016.402.547.156.836-4.004 1.207-7.621 1.633-11.754-2.5-3.566-3.566-3.707-7.742-2.547-11.684.336-.316.898-.203.883.086m15.93 11.344c-.355 1.105-1.543 1.707-2.645 1.348s-1.707-1.543-1.348-2.645a2.1 2.1 0 0 1 2.645-1.348 2.1 2.1 0 0 1 1.348 2.645m-11.48-11.48c-.355 1.105-1.543 1.707-2.645 1.348s-1.707-1.543-1.348-2.645a2.1 2.1 0 0 1 2.645-1.348c1.105.359 1.707 1.543 1.348 2.645m10.953 15.633c-.324 6.023 7.234 13.582 13.262 13.262.289-.016.398.547.156.836-4.008 1.207-7.625 1.633-11.754-2.5-3.566-3.566-3.711-7.742-2.547-11.684.336-.316.898-.203.883.086m15.93 11.25a2.1 2.1 0 1 1-3.996-1.297 2.1 2.1 0 1 1 3.996 1.297m-11.48-11.48c-.359 1.102-1.543 1.707-2.648 1.348s-1.703-1.543-1.348-2.645 1.543-1.707 2.648-1.352 1.703 1.543 1.348 2.648m42.949-27.191c.324-6.023-7.234-13.586-13.262-13.262-.289.016-.402-.543-.156-.836 4.008-1.207 7.625-1.633 11.754 2.5 3.566 3.566 3.711 7.742 2.547 11.68-.336.32-.898.207-.883-.082m-16.535-11.129c.359-1.102 1.543-1.703 2.645-1.348s1.707 1.543 1.348 2.648-1.543 1.703-2.645 1.348a2.1 2.1 0 0 1-1.348-2.648m11.48 11.484a2.1 2.1 0 0 1 2.645-1.352c1.102.359 1.707 1.543 1.348 2.648a2.1 2.1 0 0 1-2.645 1.348c-1.105-.359-1.707-1.543-1.348-2.645m-55.59-.613c.016.289-.543.402-.832.156-1.211-4.012-1.07-8.191 2.496-11.754 4.133-4.133 7.75-3.707 11.684-2.547.316.336.203.898-.086.883-6.023-.324-13.582 7.238-13.262 13.262m16.449-11.129c.359 1.105-.246 2.289-1.348 2.648s-2.289-.246-2.648-1.352.246-2.285 1.348-2.645 2.289.246 2.648 1.348m-11.48 11.484c.355 1.102-.246 2.285-1.348 2.645s-2.289-.246-2.648-1.348.246-2.289 1.348-2.648 2.289.246 2.648 1.352m4.582 28.547l.152.152v5.566l-.152.156h-5.57l-.152-.156v-5.566l.152-.152zm47.145 0l.152.152v5.566l-.152.156h-5.57l-.152-.156v-5.566l.152-.152zm-22.09 15.867v.215l-3.934 3.938h-.219l-3.934-3.937v-.215l3.934-3.937h.219zm32.715-39.988v.215l-3.934 3.937h-.219l-3.934-3.937v-.215l3.934-3.938h.219zm-66.414.113v.219l-3.937 3.934h-.215l-3.937-3.937v-.215l3.938-3.938h.215zm15.367-11.094l4.211 4.199-.019-8.504 2.867-3.027c.121-.125.262-.066.262.105l.012 14.605 2.504 2.402V78.258l2.867-2.93c.121-.121.262-.062.262.109l.035 25.66c.707.719 1.156 1.016.867 1.164 0 0-1.32.691-2.992 1.363-1.664.672-3.711 1.336-5.156 1.262-.367-.016-2.094-.293-2.496-.363l-.016-7.84-2.121-.004v1.645h-1.73v-1.691h-2.141l-.008 6.047c-.633-.148-2.262-.656-4.039-.617-2.629.059-5.844 1.543-5.844 1.543l-1.59-1.363-.004-.223 14.055-13.875zm-13.75 102.949a28.43 28.43 0 0 1 5.5.137c8.141 1.008 12.426 3.527 12.441 3.535.133.078.125.211-.019.273-.027.012-3.402 1.438-12.082.387-5.242-.633-8.16-3.805-8.168-3.812-.098-.109-.059-.227.082-.254 0 0 .852-.168 2.246-.266m28.855-14.453l.539-5.168 9.219-9.297c.316-.793.344-2.41.301-3.258-1.035-19.879 21.918-18.27 21.707-5.105-.203 12.465-17.047 11.34-13.91.891.777-2.594 4.176-3.117 5.168-1.418 1.484 2.551-.363 4.273-2.43 4.258.18.395 1.133 1.367 2.453 1.531 1.77.223 4.656-1.371 4.879-4.109.547-6.805-7.352-8.332-11.184-5.02-2.496 2.559-3.285 4.941-2.75 8.879.328 2.422 1.867 4.84 3.688 6.391.371.32.613.492.613.492.168.117.066.328-.129.27 0 0-2.871-.84-5.133-1.676l-12.773 12.465c-.129.125-.277.051-.258-.125m-23.848 21.641c.352.035.629.078.789.148.234.102.277.313.082.496l-24.164 22.531-3.906.418c-.465.035-.84.047-1.062.012-.27-.047-.457-.254-.172-.516l24.953-23.27.238-.082c1.41.137 2.531.188 3.242.262m-54.273-7.188c1.395.098 2.246.266 2.246.266.406.078-.227.563-.461.766-2.105 1.82-4.867 2.969-7.625 3.301-4.34.523-7.352.43-9.285.203-1.949-.227-2.797-.59-2.797-.59-.145-.062-.152-.195-.019-.273 0 0 1.074-.633 3.172-1.395 4.477-1.617 9.977-2.617 14.77-2.277m21.426 30.277c.277.262.098.469-.172.516-.223.039-.594.027-1.051-.008-.922-.066-2.281-.23-3.734-.34l-24.348-22.613c-.199-.184-.152-.395.082-.496.16-.074.438-.113.789-.152.711-.07 1.832-.125 3.238-.258zm-85.551-74.895c-.551-.516 1.883-2.469 2-2.594s.313-.129.434-.016l2.527 2.352 1.746 1.617.473.434 3.992-4.125c.508-.555 2.441 1.855 2.594 2 .125.113.129.309.016.43l-3.918 4.203 4.074 3.816 6.625-7.113c.512-.551 2.465 1.883 2.598 2 .121.113.125.313.012.434l-6.617 7.098 17.469 16.313.613 3.707c.063.473.098.863.074 1.102-.023.25-.195.527-.508.238l-20.082-18.73-7.285 7.793c-.516.551-2.477-1.887-2.598-2s-.125-.312-.012-.434l7.293-7.797-4.082-3.828-4.551 4.883c-.512.547-2.469-1.887-2.594-2.004s-.129-.312-.016-.434l4.539-4.852zm77.02 40.137c-.094.094-.207.066-.25-.059l-1.687-5.008a.14.14 0 0 1 .215-.187l4.406 2.289c.102.055.121.16.035.246zm.855-33.375c-.781-5.703-1.348-5.375 1.688-2.812l.035.191-1.375 2.539c.879-.203 2.664-.566 4.688-.879l-1.937-1.937v-.215l2.238-2.238h.219l2.238 2.238v.215l-1.793 1.793c1.695-.242 3.48-.43 4.992-.457l-2.18-2.18v-.215l2.238-2.242h.215l2.238 2.242v.215l-2.176 2.176c1.438-.004 3.082.117 4.684.297l-1.633-1.629v-.215l2.238-2.238c.117-.117.23.016.309.09-1.27-4.992-2.551-8.766-2.754-9.344-1.02-.258-2.031-.539-3.098-.52-1.563.031-3.844.645-5.348 1.176-.164.059-.266-.059-.187-.211 3.086-6.195 5.746-10.324 5.746-10.324.07-.113.188-.109.258 0 0 0 1.594 2.539 3.691 6.473 2.074 3.887 4.645 9.137 6.664 14.648l1.387-1.172c.133-.113.273-.035.25.137l-.559 4.152c1.27 3.996 2.16 8.027 2.285 11.699l1.391-.785c.148-.09.273.004.227.172l-1.613 5.98c-.098 4.328-.457 8.488-.895 12.09l1.043-.477c.156-.07.266.031.207.191l-1.914 5.18c-.68 4.355-1.328 7.137-1.328 7.137-.109.117-1.758.551-3.937.988-2.188.434-4.902.867-7.031.863-2.16 0-4.918-.437-7.137-.871-2.211-.43-3.887-.863-3.887-.863-.121-.203-.504-1.594-.156-1.656 0 0 6.621-1.187 10.852-1.187 1.461 0 3.629.133 4.129.164.098-.219.352-1.516.656-2.387-1.645-.187-3.344-.32-4.793-.312-4.371.027-11.129 1.355-11.129 1.355l-1.023-3.355c.105-.18 1.926-.699 4.336-1.211l1.305-.266-2.547-2.543v-.219l2.719-2.719h.215l2.719 2.719v.219l-2.418 2.418c1.762-.32 3.645-.574 5.293-.613l-2.676-2.68v-.215l2.719-2.719h.215l2.719 2.719v.215l-2.672 2.676h.227c1.336.012 2.941.191 4.469.445l-2.113-2.09-.004-.219 2.723-2.719h.215l1.68 1.641c.559-2.59 1.074-5.563 1.375-8.77-2.652-.352-5.852-.699-8.344-.684-5.168.027-13.16 1.52-13.16 1.52l-.352-3.867-1.613-5.719c-.047-.164.07-.262.223-.176l4.871 2.699c.098.055.113.16.031.242l-2.758 2.758c1.07-.223 3.152-.586 5.508-.898l-2.996-2.992v-.219l3.141-3.141h.219l3.137 3.141v.219l-2.918 2.918c2.18-.277 4.535-.496 6.504-.516l-3.121-3.121v-.219l3.141-3.141h.215l3.141 3.141v.219l-3.121 3.121c1.848-.004 4.035.172 6.117.402l-2.66-2.648v-.219l3.141-3.141h.219l1.613 1.613c-.133-3.055-.516-6.102-1.055-9.105-2.391-.352-5.211-.672-7.465-.656-4.641.035-11.805 1.523-11.805 1.523-.441.09.004-.867.5-2.73.012-.012.094-.035.23-.074m59.273-26.859l-.043-19.918-2.508 2.484-.012 14.352c0 .172-.137.23-.258.109l-2.824-2.754-.031-8.652-4.281 4.188-.215-.004-9.859-9.824c-.246-.285 1.379-1.383 4.848-1.383 1.465 0 3.508 1.023 4.922 1.445 3.449 1.035 5.121 1.512 8.59.297.98-.344 1.621-.676 1.621-.676l2.867-2.875c.121-.129.266-.07.266.105v25.82c0 .172-.141.23-.262.109zm11.312-45.023c0-.172.141-.23.262-.109l2.82 2.754.047 7.961 3.887-3.848h.215l13.805 13.777c-.758.742-5.219 3.117-8.086 2.969-.367-.019-2.094-.297-2.496-.367l.008-7.859h-2.051v1.695l-1.73-.004v-1.691l-2.242-.008-.004 6.016c-.539-.242-2.426-.699-4.203-.699-1.891 0-4.738 1.398-5.551 1.602l2.402 2.566c.129-.125 1.18-1.133 4.848-1.133 1.465 0 3.508 1.023 4.922 1.445 3.449 1.031 5.117 1.512 8.586.301.984-.348 1.625-.684 1.625-.684.184-.094.324.102.18.246l-10.086 9.902-.219-.004-3.809-3.816v7.938l-2.867 2.867a.14.14 0 0 1-.262-.109l.035-13.777-2.074-2.055-.477-.469v19.129l-2.867 2.934c-.121.121-.262.063-.262-.109v-25.133l-1.391-1.371-.004-.223 1.391-1.375.004-24.977c0-.172.141-.23.262-.109l2.824 2.824.043 19.184 2.547-2.527zm14.492-11.676c.863-.441 1.926-.098 2.363.766s.098 1.922-.766 2.363-1.922.098-2.363-.766a1.76 1.76 0 0 1 .766-2.363M78.516 71.723c2.707.387 5.125-2.445 5.137-2.461.086-.098.199-.082.254.035.004.004 1.617 3.289 4.344 4.102s5.613-1.172 5.617-1.18c.172-.117.336.055.211.219L90.66 77.02l-.199.043s-1.41-.82-4.148-1.641c-2.746-.824-6.836-1.648-12.184-1.648s-9.437.824-12.187 1.648c-2.738.82-4.145 1.641-4.145 1.641l-.199-.043-3.422-4.582c-.121-.164.043-.332.211-.219.008.008 2.895 1.996 5.617 1.18 2.73-.812 4.34-4.098 4.344-4.102.059-.117.172-.133.254-.035.012.016 2.434 2.848 5.137 2.461 1.707-.246 3.438-1.633 4.293-3.129.07-.125.266.004.266.004s1.5 2.734 4.219 3.125m-15.262-9.317c.953-.168 1.863.469 2.031 1.426s-.465 1.867-1.422 2.035-1.867-.469-2.035-1.426a1.76 1.76 0 0 1 1.426-2.035m-1.465 3.609a1.76 1.76 0 0 1 2.035 1.426c.172.957-.469 1.867-1.422 2.035s-1.867-.469-2.035-1.426a1.76 1.76 0 0 1 1.422-2.035m4.305-.758c.957-.168 1.867.469 2.035 1.422s-.469 1.867-1.422 2.035a1.76 1.76 0 0 1-2.039-1.422 1.76 1.76 0 0 1 1.426-2.035m-15.355 1.02a1.76 1.76 0 0 1 2.363.766c.441.867.098 1.922-.77 2.363a1.76 1.76 0 0 1-2.363-.766c-.437-.863-.094-1.922.77-2.363m-.344 3.879c.867-.441 1.926-.098 2.363.77a1.75 1.75 0 0 1-.766 2.359c-.867.441-1.922.098-2.363-.766a1.76 1.76 0 0 1 .766-2.363m3.895-1.984c.867-.441 1.926-.098 2.363.766s.098 1.922-.766 2.363-1.922.098-2.363-.766a1.76 1.76 0 0 1 .766-2.363m20.027-7c.969 0 1.754.785 1.754 1.754s-.785 1.758-1.754 1.758-1.758-.785-1.758-1.758.785-1.754 1.758-1.754m2.066 3.301c.969 0 1.754.785 1.754 1.754s-.785 1.758-1.754 1.758-1.758-.785-1.758-1.758.785-1.754 1.758-1.754m-4.371 0c.969 0 1.758.785 1.758 1.754a1.76 1.76 0 0 1-1.758 1.758 1.76 1.76 0 0 1-1.758-1.758c0-.969.789-1.754 1.758-1.754m13.098-2.066c.953.172 1.594 1.082 1.426 2.035a1.76 1.76 0 0 1-2.035 1.426 1.76 1.76 0 0 1-1.426-2.035c.168-.957 1.078-1.594 2.035-1.426m1.461 3.609a1.76 1.76 0 0 1 1.426 2.035c-.168.957-1.078 1.594-2.035 1.426a1.76 1.76 0 0 1-1.426-2.035c.172-.953 1.082-1.594 2.035-1.426m-4.301-.758c.953.168 1.59 1.078 1.422 2.035s-1.078 1.594-2.035 1.422-1.59-1.078-1.422-2.035 1.078-1.59 2.035-1.422m14.898 1.02c.863.441 1.207 1.5.77 2.363a1.76 1.76 0 0 1-2.363.766 1.76 1.76 0 0 1-.77-2.363 1.76 1.76 0 0 1 2.363-.766m.344 3.879a1.76 1.76 0 0 1 .766 2.363c-.441.863-1.496 1.207-2.363.766s-1.207-1.496-.766-2.359 1.5-1.211 2.363-.77m-3.895-1.984c.863.441 1.207 1.5.77 2.363a1.76 1.76 0 0 1-2.363.766 1.76 1.76 0 0 1-.77-2.363 1.76 1.76 0 0 1 2.363-.766m7.898 53.949c2.426-2.18 3.363-6.066 3.363-9.375s-.937-7.195-3.363-9.375c-.051-.379.105-.672.48-.703 3.684 1.98 6.543 4.234 6.543 10.078 0 5.043-2.852 8.094-6.457 10.059-.461-.012-.617-.305-.617-.566zm-3.766-19.074a2.11 2.11 0 0 1 2.828.918c.523 1.035.113 2.297-.918 2.824s-2.301.117-2.824-.918c-.531-1.031-.117-2.297.914-2.824m0 16.238a2.1 2.1 0 0 1 2.828.918c.523 1.031.113 2.297-.918 2.824a2.1 2.1 0 0 1-2.824-.918c-.531-1.031-.117-2.297.914-2.824m3.766-18.941c2.426-2.184 3.363-6.07 3.363-9.379s-.937-7.195-3.363-9.375c-.051-.379.105-.672.48-.703 3.684 1.98 6.543 4.238 6.543 10.078 0 5.043-2.852 8.098-6.457 10.062-.461-.012-.617-.305-.617-.57zM97.75 81.269a2.1 2.1 0 0 1 2.828.918c.523 1.031.113 2.297-.918 2.824a2.1 2.1 0 0 1-2.824-.918c-.531-1.035-.117-2.297.914-2.824m0 16.238c1.035-.527 2.301-.117 2.828.914s.113 2.297-.918 2.824-2.301.117-2.824-.918a2.09 2.09 0 0 1 .914-2.82m-51.59 24.613c.051.379-.105.672-.48.703-3.695-1.984-6.543-5.035-6.543-10.078 0-5.844 2.855-8.098 6.457-10.062.461.016.617.309.617.57-2.48 2.297-3.418 6.184-3.418 9.492s.938 7.195 3.367 9.375m3.57-19.074a2.1 2.1 0 0 1 .918 2.824c-.523 1.035-1.789 1.445-2.82.918a2.1 2.1 0 0 1-.918-2.824 2.1 2.1 0 0 1 2.82-.918m0 16.238a2.1 2.1 0 0 1 .918 2.824c-.523 1.031-1.789 1.445-2.82.918a2.1 2.1 0 0 1-.918-2.824c.523-1.035 1.789-1.445 2.82-.918m-3.57-18.941c.051.379-.105.672-.48.703-3.695-1.984-6.543-5.039-6.543-10.082 0-5.84 2.855-8.098 6.457-10.059.461.012.617.305.617.57-2.48 2.293-3.418 6.184-3.418 9.488s.938 7.195 3.367 9.379m3.57-19.074a2.1 2.1 0 0 1 .918 2.824c-.523 1.031-1.789 1.445-2.82.918a2.1 2.1 0 0 1-.918-2.824c.523-1.035 1.789-1.445 2.82-.918m0 16.238c1.035.523 1.445 1.789.918 2.82s-1.789 1.445-2.82.918a2.1 2.1 0 0 1-.918-2.824c.523-1.031 1.789-1.441 2.82-.914m44.516 32.121c.379-.051.672.105.703.48-1.984 3.691-5.035 6.543-10.078 6.543-5.844 0-8.102-2.859-10.062-6.457.012-.461.305-.617.57-.617 2.293 2.48 6.184 3.414 9.492 3.414s7.195-.934 9.375-3.363m-19.262-3.836a2.1 2.1 0 0 1 2.824-.914c1.035.523 1.445 1.789.918 2.82s-1.789 1.445-2.824.918a2.1 2.1 0 0 1-.918-2.824m-2.52 3.836c.379-.051.672.105.703.48-1.984 3.691-5.035 6.543-10.078 6.543-5.844 0-8.098-2.859-10.059-6.457.012-.461.305-.617.566-.617 2.297 2.48 6.184 3.414 9.492 3.414s7.195-.934 9.375-3.363m-3.023-3.836a2.1 2.1 0 0 1 2.824-.914c1.035.523 1.445 1.789.918 2.82a2.1 2.1 0 0 1-2.824.918c-1.035-.523-1.445-1.789-.918-2.824m-19.125-.477l.152.152v5.566l-.152.152H44.75l-.152-.152v-5.566l.152-.152zm52.867 0l.156.152v5.566l-.156.152h-5.566l-.152-.152v-5.566l.152-.152zm-25.441 12.73v.219l-3.937 3.934h-.215l-3.937-3.937v-.215l3.938-3.937h.215zm36.285-36.121v.215l-3.937 3.938h-.215l-3.937-3.937v-.215l3.938-3.937h.215zm-72.152 0v.215l-3.937 3.938h-.215l-3.937-3.937v-.215l3.938-3.937h.215zm40.832-16.965c2.809 1.145 5.969 3.246 7.613 5.813.367-.988 1.367-4.375-1.488-5.973-1.887-1.059-4.527-1.672-6.125.16m1.789 3.391a21.27 21.27 0 0 0-3-1.32c-.207 1.105-.922 5.543.078 6.113.789.449 2.016.676 2.926.648l.156.129.336 2.23c1.371-.457 4.777-1.879 3.895-3.773-.82-1.758-2.695-3.109-4.391-4.027m-25.43-3.391c2.809 1.145 5.969 3.246 7.613 5.813.367-.988 1.367-4.375-1.492-5.973-1.887-1.059-4.523-1.672-6.121.16m1.789 3.391a21.05 21.05 0 0 0-3.004-1.32c-.207 1.105-.918 5.543.078 6.113.789.449 2.016.676 2.93.648l.156.129.336 2.23c1.371-.457 4.777-1.879 3.895-3.773-.82-1.758-2.695-3.109-4.391-4.027m21.852 20.734c2.809 1.145 5.969 3.246 7.613 5.812.367-.988 1.367-4.375-1.488-5.973-1.887-1.055-4.527-1.672-6.125.16m1.789 3.395c-1.355-.734-2.574-1.176-3-1.32-.207 1.105-.922 5.539.078 6.109.789.449 2.016.676 2.926.648l.156.129.336 2.23c1.371-.457 4.777-1.879 3.895-3.773-.82-1.758-2.695-3.109-4.391-4.023m-22.715-1.668c-1.656-1.012-3.016-1.516-3.016-1.516-.102-.039-.133-.141-.074-.23.492-.602 1.031-.965 1.598-1.184 1.098-.426 2.758-.508 5.051.773 1.813 1.016 2.184 2.699 2.109 4.098s-.598 2.539-.602 2.547c-.062.137-.195.145-.27.016-1.187-1.988-3.133-3.496-4.797-4.504m-.926 1.668c-1.355-.734-2.574-1.176-3.004-1.32-.207 1.105-.918 5.539.078 6.109.789.449 2.016.676 2.93.648l.156.129.336 2.23c1.371-.457 4.777-1.879 3.895-3.773-.82-1.758-2.695-3.109-4.391-4.023m15.402-13.016H94.61v4.742H76.184l.004 18.25h-4.742l-.035-18.25H52.957v-4.742l18.516.035V80.832h4.742zm0 0" fill="#1d3c77"/></svg>